<?xml version="1.0"?>
<svg xmlns="http://www.w3.org/2000/svg" xmlns:xlink="http://www.w3.org/1999/xlink" version="1.1" id="Layer_1" x="0px" y="0px" viewBox="0 0 496.158 496.158" style="enable-background:new 0 0 496.158 496.158;" xml:space="preserve" width="512px" height="512px" class=""><g><path style="fill:#EB636B" d="M496.158,248.085c0-137.021-111.07-248.082-248.076-248.082C111.07,0.002,0,111.062,0,248.085  c0,137.002,111.07,248.071,248.083,248.071C385.088,496.155,496.158,385.086,496.158,248.085z" data-original="#E04F5F" class="active-path" data-old_color="#eb636b"/><path style="fill:#EB636B" d="M353.079,133.078h-210c-5.523,0-10,4.479-10,10v210c0,5.523,4.477,10,10,10h210  c5.523,0,10-4.477,10-10v-210C363.079,137.557,358.602,133.078,353.079,133.078z" data-original="#FFFFFF" class="" data-old_color="#eb636b"/></g> </svg>
